HIERARCHY
ROOT hip
{
	OFFSET 0.000000 0.000000 0.000000
	CHANNELS 6 Xposition Yposition Zposition Xrotation Zrotation Yrotation 
	JOINT abdomen
	{
		OFFSET 0.000000 3.422050 0.000000
		CHANNELS 3 Xrotation Zrotation Yrotation 
		JOINT chest
		{
			OFFSET 0.000000 8.486693 -0.6844110
			CHANNELS 3 Xrotation Zrotation Yrotation 
			JOINT neck
			{
				OFFSET 0.000000 10.26616 -0.2737640
				CHANNELS 3 Xrotation Zrotation Yrotation 
				JOINT head
				{
					OFFSET 0.000000 3.148285 0.000000
					CHANNELS 3 Xrotation Zrotation Yrotation 
					End Site
					{
						OFFSET 0.000000 3.148289 0.000000
					}
				}
			}
			JOINT lCollar
			{
				OFFSET 3.422053 6.707223 -0.8212930
				CHANNELS 3 Yrotation Zrotation Xrotation 
				JOINT lShldr
				{
					OFFSET 3.285171 0.000000 0.000000
					CHANNELS 3 Zrotation Yrotation Xrotation 
					JOINT lForeArm
					{
						OFFSET 10.12928 0.000000 0.000000
						CHANNELS 3 Yrotation Zrotation Xrotation 
						JOINT lHand
						{
							OFFSET 8.486692 0.000000 0.000000
							CHANNELS 3 Zrotation Yrotation Xrotation 
							End Site
							{
								OFFSET 4.106464 0.000000 0.000000
							}
						}
					}
				}
			}
			JOINT rCollar
			{
				OFFSET -3.558935 6.707223 -0.8212930
				CHANNELS 3 Yrotation Zrotation Xrotation 
				JOINT rShldr
				{
					OFFSET -3.148289 0.000000 0.000000
					CHANNELS 3 Zrotation Yrotation Xrotation 
					JOINT rForeArm
					{
						OFFSET -10.26616 0.000000 0.000000
						CHANNELS 3 Yrotation Zrotation Xrotation 
						JOINT rHand
						{
							OFFSET -8.349810 0.000000 0.000000
							CHANNELS 3 Zrotation Yrotation Xrotation 
							End Site
							{
								OFFSET -4.106464 0.000000 0.000000
							}
						}
					}
				}
			}
		}
	}
	JOINT lThigh
	{
		OFFSET 5.338403 -1.642589 1.368821
		CHANNELS 3 Xrotation Zrotation Yrotation 
		JOINT lShin
		{
			OFFSET -2.053232 -20.12167 0.000000
			CHANNELS 3 Xrotation Zrotation Yrotation 
			JOINT lFoot
			{
				OFFSET 0.000000 -19.30038 -1.231939
				CHANNELS 3 Xrotation Yrotation Zrotation 
				End Site
				{
					OFFSET 0.000000 -2.463878 4.653993
				}
			}
		}
	}
	JOINT rThigh
	{
		OFFSET -5.338403 -1.642589 1.368821
		CHANNELS 3 Xrotation Zrotation Yrotation 
		JOINT rShin
		{
			OFFSET 2.053232 -20.12167 0.000000
			CHANNELS 3 Xrotation Zrotation Yrotation 
			JOINT rFoot
			{
				OFFSET 0.000000 -19.30038 -1.231939
				CHANNELS 3 Xrotation Yrotation Zrotation 
				End Site
				{
					OFFSET 0.000000 -2.463878 4.653993
				}
			}
		}
	}
}
MOTION
Frames:	15
Frame Time:	0.03333333
0.000000 43.52852 0.000000 -3.257399 0.000000 0.000000 -1.690192 0.4004869 0.1055178 -5.947218 0.7133759 0.4479258 0.000000 0.000000 0.000000 8.018038 0.000000 12.47250 -8.699689 -32.63826 -6.964787 -21.97522 -11.46768 65.52944 -76.23786 -5.089601 -26.84655 -19.01862 1.869166 -33.31127 0.006495127 17.97731 12.34039 36.53632 19.31211 44.71520 98.26159 1.377793 0.2520309 16.47564 -5.943002 -5.237950 1.682359 7.681351 -22.00066 14.94071 0.6854875 -1.339610 -12.57650 1.658174 0.8966019 1.682359 -7.681351 22.00066 14.94071 -0.6854875 1.339610 -12.57650 -1.658174 -0.8966019 
0.000000 43.52852 0.000000 -3.444617 0.000000 0.000000 -1.683735 0.3989571 0.1051147 -5.947420 0.7106509 0.4462147 0.000000 0.000000 0.000000 8.169830 0.000000 12.70862 -8.700836 -32.63964 -6.964921 -21.97532 -11.46589 65.52361 -76.23313 -5.070158 -26.83186 -18.99945 1.862026 -33.29098 0.006470316 17.97739 12.33908 36.57629 19.30328 44.70100 98.25295 1.372530 0.2510681 16.47001 -5.920300 -5.217941 1.742558 7.626536 -22.00064 15.17086 0.6673931 -1.295719 -12.55770 1.607252 0.8691789 1.742558 -7.626536 22.00064 15.17086 -0.6673931 1.295719 -12.55770 -1.607252 -0.8691789 
0.000000 43.52852 0.000000 -3.633789 0.000000 0.000000 -1.673011 0.3964160 0.1044452 -5.947754 0.7061245 0.4433726 0.000000 0.000000 0.000000 8.310077 0.000000 12.92679 -8.702742 -32.64194 -6.965145 -21.97547 -11.46293 65.51390 -76.22528 -5.037865 -26.80745 -18.96761 1.850166 -33.25728 0.006429104 17.97754 12.33693 36.64268 19.28860 44.67743 98.23860 1.363788 0.2494690 16.46064 -5.882591 -5.184706 1.803385 7.571150 -22.00061 15.40340 0.6491100 -1.251371 -12.53871 1.555797 0.8414696 1.803385 -7.571150 22.00061 15.40340 -0.6491100 1.251371 -12.53871 -1.555797 -0.8414696 
0.000000 43.52852 0.000000 -3.824564 0.000000 0.000000 -1.658074 0.3928766 0.1035126 -5.948221 0.6998199 0.4394140 0.000000 0.000000 0.000000 8.438336 0.000000 13.12630 -8.705396 -32.64513 -6.965456 -21.97569 -11.45879 65.50038 -76.21434 -4.992885 -26.77346 -18.92325 1.833647 -33.21034 0.006371703 17.97774 12.33392 36.73516 19.26817 44.64460 98.21861 1.351611 0.2472416 16.44760 -5.830069 -5.138415 1.864728 7.515293 -22.00059 15.63792 0.6306717 -1.206647 -12.51956 1.503907 0.8135254 1.864728 -7.515293 22.00059 15.63792 -0.6306717 1.206647 -12.51956 -1.503907 -0.8135254 
0.000000 43.52852 0.000000 -4.016591 0.000000 0.000000 -1.638999 0.3883570 0.1023218 -5.948816 0.6917692 0.4343590 0.000000 0.000000 0.000000 8.554205 0.000000 13.30654 -8.708785 -32.64922 -6.965853 -21.97597 -11.45352 65.48312 -76.20037 -4.935447 -26.73005 -18.86662 1.812553 -33.15040 0.006298403 17.97799 12.33008 36.85324 19.24208 44.60267 98.19309 1.336063 0.2443974 16.43095 -5.763000 -5.079303 1.926474 7.459071 -22.00057 15.87398 0.6121126 -1.161629 -12.50028 1.451676 0.7853979 1.926474 -7.459071 22.00057 15.87398 -0.6121126 1.161629 -12.50028 -1.451676 -0.7853979 
0.000000 43.52852 0.000000 -4.209513 0.000000 0.000000 -1.615885 0.3828801 0.1008788 -5.949538 0.6820135 0.4282334 0.000000 0.000000 0.000000 8.657318 0.000000 13.46694 -8.712892 -32.65416 -6.966335 -21.97631 -11.44712 65.46220 -76.18344 -4.865844 -26.67744 -18.79799 1.786991 -33.07777 0.006209578 17.97831 12.32542 36.99634 19.21046 44.55186 98.16216 1.317221 0.2409507 16.41077 -5.681726 -5.007671 1.988507 7.402586 -22.00055 16.11113 0.5934669 -1.116402 -12.48091 1.399202 0.7571394 1.988507 -7.402586 22.00055 16.11113 -0.5934669 1.116402 -12.48091 -1.399202 -0.7571394 
0.000000 43.52852 0.000000 -4.402972 0.000000 0.000000 -1.588849 0.3764739 0.09919097 -5.950383 0.6706023 0.4210684 0.000000 0.000000 0.000000 8.747352 0.000000 13.60699 -8.717695 -32.65995 -6.966898 -21.97671 -11.43964 65.43774 -76.16364 -4.784431 -26.61592 -18.71771 1.757092 -32.99281 0.006105683 17.97867 12.31998 37.16372 19.17348 44.49244 98.12599 1.295181 0.2369193 16.38717 -5.586662 -4.923885 2.050713 7.345944 -22.00052 16.34895 0.5747694 -1.071048 -12.46149 1.346582 0.7288021 2.050713 -7.345944 22.00052 16.34895 -0.5747694 1.071048 -12.46149 -1.346582 -0.7288021 
0.000000 43.52852 0.000000 -4.596611 0.000000 0.000000 -1.558028 0.3691711 0.09726686 -5.951345 0.6575939 0.4129005 0.000000 0.000000 0.000000 8.824023 0.000000 13.72626 -8.723172 -32.66655 -6.967540 -21.97716 -11.43111 65.40985 -76.14107 -4.691622 -26.54577 -18.62619 1.723008 -32.89596 0.005987244 17.97908 12.31377 37.35452 19.13131 44.42469 98.08475 1.270057 0.2323235 16.36026 -5.478292 -4.828372 2.112977 7.289249 -22.00050 16.58699 0.5560544 -1.025653 -12.44205 1.293913 0.7004385 2.112977 -7.289249 22.00050 16.58699 -0.5560544 1.025653 -12.44205 -1.293913 -0.7004385 
0.000000 43.52852 0.000000 -4.790071 0.000000 0.000000 -1.523580 0.3610088 0.09511631 -5.952421 0.6430546 0.4037713 0.000000 0.000000 0.000000 8.887090 0.000000 13.82436 -8.729293 -32.67392 -6.968257 -21.97766 -11.42158 65.37868 -76.11584 -4.587891 -26.46738 -18.52391 1.684913 -32.78771 0.005854867 17.97955 12.30683 37.56778 19.08419 44.34897 98.03866 1.241977 0.2271869 16.33018 -5.357168 -4.721617 2.175183 7.232606 -22.00048 16.82480 0.5373567 -0.9802992 -12.42263 1.241292 0.6721011 2.175183 -7.232606 22.00048 16.82480 -0.5373567 0.9802992 -12.42263 -1.241292 -0.6721011 
0.000000 43.52852 0.000000 -4.982995 0.000000 0.000000 -1.485681 0.3520286 0.09275027 -5.953604 0.6270584 0.3937274 0.000000 0.000000 0.000000 8.936354 0.000000 13.90099 -8.736027 -32.68203 -6.969047 -21.97822 -11.41109 65.34438 -76.08808 -4.473766 -26.38112 -18.41138 1.643000 -32.66861 0.005709226 17.98005 12.29920 37.80241 19.03235 44.26566 97.98795 1.211082 0.2215355 16.29709 -5.223907 -4.604166 2.237216 7.176122 -22.00046 17.06196 0.5187109 -0.9350715 -12.40326 1.188818 0.6438423 2.237216 -7.176122 22.00046 17.06196 -0.5187109 0.9350715 -12.40326 -1.188818 -0.6438423 
0.000000 43.52852 0.000000 -5.175024 0.000000 0.000000 -1.444523 0.3422763 0.09018078 -5.954890 0.6096870 0.3828199 0.000000 0.000000 0.000000 8.971660 0.000000 13.95592 -8.743340 -32.69084 -6.969905 -21.97882 -11.39970 65.30714 -76.05794 -4.349829 -26.28746 -18.28917 1.597484 -32.53928 0.005551063 17.98061 12.29091 38.05721 18.97604 44.17519 97.93287 1.177531 0.2153983 16.26116 -5.079188 -4.476615 2.298963 7.119898 -22.00044 17.29802 0.5001516 -0.8900534 -12.38399 1.136586 0.6157146 2.298963 -7.119898 22.00044 17.29802 -0.5001516 0.8900534 -12.38399 -1.136586 -0.6157146 
0.000000 43.52852 0.000000 -5.365802 0.000000 0.000000 -1.400316 0.3318015 0.08742097 -5.956270 0.5910286 0.3711044 0.000000 0.000000 0.000000 8.992898 0.000000 13.98895 -8.751194 -32.70030 -6.970826 -21.97947 -11.38747 65.26714 -76.02556 -4.216710 -26.18685 -18.15791 1.548596 -32.40036 0.005381182 17.98120 12.28201 38.33089 18.91557 44.07802 97.87372 1.141495 0.2088064 16.22256 -4.923749 -4.339617 2.360307 7.064041 -22.00042 17.53254 0.4817131 -0.8453284 -12.36483 1.084695 0.5877699 2.360307 -7.064041 22.00042 17.53254 -0.4817131 0.8453284 -12.36483 -1.084695 -0.5877699 
0.000000 43.52852 0.000000 -5.554978 0.000000 0.000000 -1.353285 0.3206578 0.08448488 -5.957739 0.5711786 0.3586406 0.000000 0.000000 0.000000 9.000000 0.000000 14.00000 -8.759550 -32.71037 -6.971806 -21.98016 -11.37446 65.22458 -75.99112 -4.075089 -26.07982 -18.01826 1.496585 -32.25257 0.005200452 17.98183 12.27254 38.62205 18.85123 43.97464 97.81079 1.103157 0.2017935 16.18150 -4.758381 -4.193868 2.421135 7.008653 -22.00039 17.76509 0.4634295 -0.8009792 -12.34584 1.033240 0.5600600 2.421135 -7.008653 22.00039 17.76509 -0.4634295 0.8009792 -12.34584 -1.033240 -0.5600600 
0.000000 43.52852 0.000000 -5.742200 0.000000 0.000000 -1.303671 0.3089017 0.08138748 -5.959288 0.5502378 0.3454920 0.000000 0.000000 0.000000 8.976913 0.000000 13.96409 -8.768366 -32.72099 -6.972839 -21.98089 -11.36073 65.17969 -75.95478 -3.925687 -25.96690 -17.87094 1.441717 -32.09666 0.005009791 17.98250 12.26254 38.92920 18.78336 43.86559 97.74440 1.062713 0.1943953 16.13819 -4.583929 -4.040111 2.481336 6.953837 -22.00037 17.99524 0.4453347 -0.7570879 -12.32705 0.9823159 0.5326363 2.481336 -6.953837 22.00037 17.99524 -0.4453347 0.7570879 -12.32705 -0.9823159 -0.5326363 
0.000000 43.52852 0.000000 -5.927123 0.000000 0.000000 -1.251725 0.2965933 0.07814453 -5.960910 0.5283132 0.3317257 0.000000 0.000000 0.000000 8.907890 0.000000 13.85672 -8.777596 -32.73210 -6.973921 -21.98165 -11.34636 65.13268 -75.91674 -3.769265 -25.84869 -17.71670 1.384271 -31.93343 0.004810173 17.98319 12.25208 39.25079 18.71231 43.75141 97.67490 1.020369 0.1866495 16.09283 -4.401278 -3.879130 2.540797 6.899694 -22.00035 18.22256 0.4274622 -0.7137359 -12.30848 0.9320176 0.5055496 2.540797 -6.899694 22.00035 18.22256 -0.4274622 0.7137359 -12.30848 -0.9320176 -0.5055496 
